PathFileType	4	(X/Y/Z)	D:\Share\Shared_Data\Ergonomics\Sit To Stand Pertubation\S3\Perturbed.trc
DataRate	CameraRate	NumFrames	NumMarkers	Units	OrigDataRate	OrigDataStartFrame	OrigNumFrames	
100	100	14	18	m	100	9468	231
Frame#	Time	R_ASIS			R_Pelvis			V_Sacral			L_Pelvis			L_ASIS			Clavical			R_Acromium			L_Acromium			Sternum			Torso			R_Thigh_Med			R_Thigh_Lat			R_Thigh			R_Shank_Med			R_Shank_Lat			R_Shank			R_Heel			R_Toe			
		X1	Y1	Z1	X2	Y2	Z2	X3	Y3	Z3	X4	Y4	Z4	X5	Y5	Z5	X6	Y6	Z6	X7	Y7	Z7	X8	Y8	Z8	X9	Y9	Z9	X10	Y10	Z10	X11	Y11	Z11	X12	Y12	Z12	X13	Y13	Z13	X14	Y14	Z14	X15	Y15	Z15	X16	Y16	Z16	X17	Y17	Z17	X18	Y18	Z18	

9468	94.67	0.037982178	0.64413062	0.14459155	-0.071590202	0.62627277	0.19857425	-0.18061797	0.6202702	0.011760201	-0.065377579	0.64347711	-0.18881212	0.04140979	0.64438342	-0.13409448	0.018359926	1.0421102	-0.008155549	-0.030722885	1.1014335	0.16572556	-0.026553673	1.0979902	-0.1689846	0.043850933	0.96819904	0.00032612371	0.025282616	1.0308418	-0.069274879	0.38721805	0.46386414	0.067620613	0.37325479	0.44738068	0.18419714	0.20461877	0.57713867	0.10888058	0.30694135	0.10726045	0.091733482	0.29299103	0.094729027	0.17381329	0.31702383	0.27251721	0.19504524	0.23250424	0.050670101	0.12978752	0.44960257	0.056319897	0.11398322
9469	94.68	0.038100819	0.64411725	0.14451715	-0.07147184	0.62644507	0.19854828	-0.18052119	0.6205152	0.011738811	-0.06530265	0.64352911	-0.18887428	0.041442833	0.64434229	-0.13414941	0.019751511	1.0420066	-0.0083869047	-0.029270094	1.1014473	0.16544446	-0.025057726	1.0978608	-0.16927513	0.044995739	0.96799182	9.2527144e-05	0.026631071	1.0306721	-0.069537804	0.38716925	0.46381155	0.067588547	0.37321103	0.44739371	0.1841722	0.20457971	0.57714581	0.10883418	0.30694156	0.10726219	0.091730232	0.29300339	0.094722809	0.17380084	0.31699313	0.2725275	0.19503688	0.23251167	0.050661686	0.1297717	0.44960263	0.056320515	0.11398106
9470	94.69	0.038243446	0.64411774	0.14449297	-0.071340637	0.62663519	0.19850578	-0.18040894	0.62078461	0.011698452	-0.065201691	0.64359052	-0.1889581	0.04149329	0.64429816	-0.13421439	0.021222391	1.0418867	-0.0086199083	-0.027723818	1.1014512	0.165161	-0.023486338	1.0977123	-0.16957327	0.046204361	0.96776575	-0.00015235959	0.028048954	1.0304813	-0.069814316	0.38711356	0.46375491	0.067551506	0.37316092	0.44741302	0.1841396	0.20453284	0.57715485	0.10877261	0.30694339	0.10726484	0.091725502	0.2930148	0.094719261	0.17379021	0.31695868	0.27254193	0.19502509	0.23251976	0.050654175	0.12975291	0.44960345	0.056321049	0.11397798
9471	94.7	0.038422005	0.64412909	0.14454515	-0.071199257	0.62683765	0.19844652	-0.18028146	0.62107745	0.011639599	-0.065076767	0.64365802	-0.1890602	0.041570187	0.64424829	-0.13429048	0.022781061	1.0417465	-0.0088533812	-0.026073734	1.1014437	0.16487648	-0.021829052	1.0975431	-0.16987621	0.047482845	0.96751624	-0.00040705568	0.029544197	1.0302671	-0.070101898	0.38705316	0.46369955	0.067509781	0.3731062	0.44743826	0.18409798	0.2044803	0.57716498	0.10869626	0.30694745	0.1072681	0.091719521	0.29302484	0.09471991	0.17378285	0.31692041	0.27256076	0.1950088	0.23252728	0.050649548	0.12973343	0.44960535	0.056321465	0.11397402
9472	94.71	0.03864645	0.64414642	0.14469069	-0.07105146	0.62704565	0.19837175	-0.18013974	0.62139203	0.011563068	-0.064930809	0.64372906	-0.18917598	0.041684238	0.64418982	-0.13437732	0.024436058	1.0415825	-0.0090866728	-0.02430969	1.101423	0.16459059	-0.020074535	1.0973512	-0.17018286	0.04883736	0.9672381	-0.00067072588	0.031124903	1.0300261	-0.070398201	0.38698984	0.46365033	0.06746244	0.37304837	0.44746869	0.18404611	0.20442439	0.57717548	0.10860522	0.30695462	0.10727173	0.091712791	0.29303506	0.094724243	0.17377765	0.31687885	0.27258392	0.194987	0.23253339	0.05064883	0.12971536	0.44960828	0.056321724	0.11396919
9473	94.72	0.038917889	0.64416241	0.14492401	-0.070900047	0.62725287	0.19828444	-0.17998531	0.62172552	0.011470181	-0.064766701	0.6438009	-0.18930054	0.04184169	0.64412042	-0.13447354	0.026195158	1.0413907	-0.0093195505	-0.022421997	1.1013868	0.16430258	-0.018212835	1.0971349	-0.17049336	0.050273731	0.96692712	-0.00094170499	0.032799145	1.0297545	-0.070700439	0.38692474	0.46361115	0.067406235	0.37298886	0.44750293	0.18398289	0.20436734	0.57718585	0.10849911	0.3069657	0.10727553	0.091706039	0.29304831	0.094730499	0.17377165	0.31683594	0.27261078	0.19495882	0.23253769	0.050651459	0.12970009	0.449612	0.056321575	0.11396359
9474	94.73	0.03922422	0.64416803	0.14520645	-0.07074575	0.62745532	0.19818837	-0.17981956	0.62207483	0.011363091	-0.064586174	0.64387146	-0.18942976	0.04203981	0.64403973	-0.1345782	0.02806509	1.0411681	-0.0095524645	-0.020400829	1.1013324	0.16401166	-0.016235432	1.0968932	-0.17080786	0.051797112	0.96657898	-0.0012171991	0.034574444	1.0294487	-0.071005028	0.38685822	0.46358585	0.067334679	0.3729295	0.44753958	0.18390698	0.20431104	0.57719519	0.10837734	0.30698117	0.10727933	0.091700119	0.29306747	0.09473735	0.17376228	0.31679431	0.27264041	0.19492351	0.23254005	0.050656387	0.1296886	0.44961615	0.056320717	0.11395744
9475	94.74	0.039546707	0.64415399	0.14547986	-0.07058773	0.62765155	0.19808737	-0.1796427	0.62243756	0.011244865	-0.064389687	0.64393976	-0.18956105	0.042271694	0.64394867	-0.13469038	0.030051762	1.0409106	-0.0097857084	-0.01823629	1.1012574	0.1637173	-0.014133334	1.0966277	-0.17112505	0.053412292	0.9661897	-0.0014941143	0.036457317	1.0291046	-0.071308258	0.38678958	0.46357993	0.067237213	0.37287289	0.4475773	0.1838168	0.20425673	0.57720227	0.10823952	0.30700098	0.10728311	0.091695854	0.29309329	0.094745094	0.17374902	0.31675668	0.27267154	0.19488013	0.2325403	0.050663193	0.12968188	0.44962039	0.056319073	0.11395109
9476	94.75	0.039873291	0.64411597	0.14569867	-0.070424034	0.62784338	0.19798489	-0.17945334	0.62281165	0.011119228	-0.06417672	0.6440058	-0.18969322	0.042532867	0.64384729	-0.13480904	0.032160332	1.0406139	-0.010019155	-0.015918689	1.1011589	0.16341974	-0.011895771	1.0963419	-0.17144061	0.055124275	0.96575427	-0.0017700449	0.038453533	1.0287166	-0.071606873	0.38671674	0.46360233	0.067098557	0.37282156	0.44761487	0.18371049	0.20420503	0.57720605	0.10808533	0.30702429	0.10728681	0.091693665	0.29312427	0.094755333	0.17373312	0.31672507	0.27270325	0.19482776	0.23253835	0.050671959	0.12968074	0.44962439	0.056316757	0.11394499
9477	94.76	0.040204369	0.64405536	0.14584595	-0.070252258	0.62803357	0.19788359	-0.17924925	0.62319672	0.010989965	-0.063946655	0.64407086	-0.18982579	0.042822491	0.64373492	-0.13493315	0.03439505	1.0402732	-0.010253255	-0.013438682	1.1010334	0.16312024	-0.0095098972	1.0960408	-0.1717477	0.056938202	0.96526685	-0.0020431802	0.040569069	1.0282793	-0.071898422	0.38663638	0.46366678	0.06689904	0.37277795	0.44765128	0.18358626	0.20415608	0.57720587	0.10791478	0.30705023	0.10729025	0.091693451	0.29315759	0.094770363	0.17371626	0.31670038	0.27273486	0.19476579	0.23253435	0.050682686	0.12968539	0.44962787	0.056313976	0.11393964
9478	94.77	0.040548241	0.64397681	0.14592578	-0.070070084	0.62822552	0.19778537	-0.17902869	0.62359332	0.010860192	-0.063699512	0.64413721	-0.18995871	0.043141392	0.6436106	-0.13506226	0.036759472	1.0398839	-0.010489316	-0.010787654	1.1008784	0.16282098	-0.0069614563	1.0957268	-0.17204001	0.058859108	0.96472174	-0.002311491	0.042810738	1.0277881	-0.072181007	0.38654495	0.46379019	0.066616951	0.37274329	0.44768567	0.18344244	0.20410965	0.57720148	0.10772843	0.30707788	0.10729329	0.09169487	0.2931904	0.094792694	0.17369984	0.31668222	0.27276596	0.19469389	0.23252884	0.050694721	0.12969525	0.44963086	0.056311024	0.11393542
9479	94.78	0.040913857	0.64388525	0.14595041	-0.069874931	0.62842163	0.19769102	-0.1787917	0.62400336	0.010732189	-0.063436337	0.64420746	-0.1900928	0.043489662	0.64347351	-0.13519621	0.039257206	1.0394412	-0.01072898	-0.0079582324	1.1006904	0.1625246	-0.0042359529	1.0953994	-0.17231476	0.060892029	0.96411407	-0.0025725002	0.045185909	1.0272396	-0.072452843	0.38643915	0.46398874	0.066233871	0.37271771	0.44771802	0.18327766	0.2040654	0.57719293	0.10752738	0.30710666	0.10729581	0.091697441	0.29321933	0.094824219	0.1736852	0.31666953	0.27279651	0.19461203	0.23252234	0.050706799	0.12970892	0.44963321	0.056308216	0.11393244
9480	94.79	0.041304951	0.64378326	0.1459315	-0.069663261	0.6286236	0.1976004	-0.17854024	0.62442841	0.010607935	-0.063158543	0.64428516	-0.19022931	0.043864639	0.64332343	-0.13533438	0.041892784	1.0389415	-0.0109739	-0.0049444752	1.100467	0.1622339	-0.0013193806	1.0950548	-0.17257231	0.063042343	0.96343982	-0.0028237371	0.047702103	1.0266326	-0.072711624	0.38631796	0.46426938	0.065742836	0.37269998	0.44774924	0.1830909	0.20402304	0.5771806	0.10731328	0.30713596	0.10729757	0.091700691	0.29324066	0.094866127	0.17367384	0.31666068	0.27282654	0.19452	0.23251501	0.050717541	0.12972495	0.4496348	0.05630579	0.1139305
9481	94.8	0.041715828	0.64366956	0.14587457	-0.06943055	0.62883282	0.19751328	-0.17827708	0.62487048	0.010489702	-0.062866756	0.64437329	-0.19036862	0.044259747	0.64316113	-0.13547527	0.044671616	1.0383835	-0.011225406	-0.0017415299	1.1002056	0.16195174	0.0018015627	1.0946918	-0.17281374	0.065315994	0.96269604	-0.0030632873	0.050366894	1.0259648	-0.07295475	0.38618491	0.46461716	0.065159073	0.37268814	0.44778033	0.18288144	0.2039826	0.57716492	0.107088	0.3071651	0.10729812	0.091704124	0.29325162	0.094919418	0.17366689	0.31665347	0.27285623	0.19441734	0.2325067	0.050725594	0.12974222	0.44963538	0.056303898	0.11392921
